<?xml version="1.0" encoding="utf-8"?>
<!-- Generator: Adobe Illustrator 16.0.0, SVG Export Plug-In . SVG Version: 6.00 Build 0)  -->
<!DOCTYPE svg PUBLIC "-//W3C//DTD SVG 1.1//EN" "http://www.w3.org/Graphics/SVG/1.1/DTD/svg11.dtd">
<svg version="1.1" id="图层_1" xmlns="http://www.w3.org/2000/svg" xmlns:xlink="http://www.w3.org/1999/xlink" x="0px" y="0px"
	 viewBox="5 5 38 38" enable-background="new 5 5 38 38" xml:space="preserve">
<g>
	<path d="M22.541,15.486h-2.83V9.94c0-1.488-0.542-2.232-1.626-2.232c-0.504,0-0.923,0.226-1.257,0.677s-0.501,1.002-0.501,1.652
		v5.449h-2.83V9.87c0-1.441-0.536-2.162-1.608-2.162c-0.533,0-0.959,0.215-1.279,0.646s-0.479,1-0.479,1.709v5.423H7.292V5.766
		h2.839v1.521h0.035c0.34-0.557,0.791-0.989,1.354-1.296s1.154-0.461,1.775-0.461c1.365,0,2.3,0.612,2.804,1.837
		c0.75-1.225,1.84-1.837,3.27-1.837c2.115,0,3.173,1.307,3.173,3.92V15.486z"/>
	<path d="M34.099,5.766l-3.217,4.737l3.19,4.983h-3.278l-1.45-2.681c-0.199-0.369-0.337-0.659-0.413-0.87h-0.035
		c-0.105,0.281-0.237,0.563-0.396,0.844l-1.477,2.707h-3.261l3.287-4.834l-3.094-4.887h3.287l1.441,2.795
		c0.141,0.27,0.272,0.568,0.396,0.896h0.035c0.059-0.199,0.193-0.501,0.404-0.905l1.485-2.786H34.099z"/>
	<path d="M16.448,38.067h-3.302v-1.6h-0.051c-0.8,1.251-1.982,1.876-3.548,1.876c-1.442,0-2.589-0.509-3.44-1.528
		c-0.852-1.019-1.277-2.406-1.277-4.163c0-1.859,0.477-3.358,1.43-4.496c0.954-1.139,2.2-1.708,3.738-1.708
		c1.477,0,2.509,0.533,3.097,1.6h0.051v-6.768h3.302V38.067z M13.198,31.648c0-0.766-0.231-1.399-0.692-1.902
		c-0.462-0.502-1.038-0.753-1.728-0.753c-0.807,0-1.441,0.32-1.902,0.958c-0.462,0.64-0.692,1.506-0.692,2.6
		c0,1.039,0.222,1.841,0.667,2.404c0.444,0.564,1.056,0.846,1.835,0.846c0.731,0,1.333-0.297,1.805-0.892s0.708-1.367,0.708-2.317
		V31.648z"/>
	<path d="M29.532,33.33h-7.465c0.116,1.757,1.176,2.635,3.179,2.635c1.251,0,2.355-0.308,3.312-0.923v2.43
		c-1.032,0.581-2.386,0.872-4.061,0.872c-1.805,0-3.208-0.509-4.209-1.528s-1.502-2.437-1.502-4.255c0-1.812,0.533-3.283,1.6-4.415
		c1.066-1.131,2.406-1.697,4.02-1.697c1.606,0,2.862,0.487,3.769,1.461c0.905,0.974,1.358,2.312,1.358,4.014V33.33z M26.446,31.259
		c0-1.695-0.687-2.543-2.061-2.543c-0.567,0-1.07,0.232-1.507,0.697s-0.711,1.08-0.82,1.846H26.446z"/>
	<path d="M42.278,26.727l-4.255,11.341H34.28l-4.05-11.341h3.548l2.082,7.137c0.226,0.779,0.352,1.432,0.379,1.958h0.051
		c0.055-0.54,0.188-1.172,0.4-1.897l2.123-7.198H42.278z"/>
</g>
</svg>
